<?xml version="1.0" encoding="UTF-8" standalone="no"?>
<!-- Created with Inkscape (http://www.inkscape.org/) -->

<svg
   xmlns:dc="http://purl.org/dc/elements/1.1/"
   xmlns:cc="http://creativecommons.org/ns#"
   xmlns:rdf="http://www.w3.org/1999/02/22-rdf-syntax-ns#"
   xmlns:svg="http://www.w3.org/2000/svg"
   xmlns="http://www.w3.org/2000/svg"
   xmlns:sodipodi="http://sodipodi.sourceforge.net/DTD/sodipodi-0.dtd"
   xmlns:inkscape="http://www.inkscape.org/namespaces/inkscape"
   width="400"
   height="400"
   viewBox="0 0 105.83333 105.83334"
   version="1.1"
   id="svg8"
   inkscape:version="0.92.2 5c3e80d, 2017-08-06"
   sodipodi:docname="logo.svg"
   inkscape:export-filename="/Users/igabriele/Workspace/blog/images/logo-256.png"
   inkscape:export-xdpi="61.439999"
   inkscape:export-ydpi="61.439999">
  <defs
     id="defs2" />
  <sodipodi:namedview
     id="base"
     pagecolor="#22b4eb"
     bordercolor="#666666"
     borderopacity="1.0"
     inkscape:pageopacity="0"
     inkscape:pageshadow="2"
     inkscape:zoom="0.35"
     inkscape:cx="-92.857143"
     inkscape:cy="560"
     inkscape:document-units="px"
     inkscape:current-layer="text31"
     showgrid="false"
     inkscape:window-width="1440"
     inkscape:window-height="787"
     inkscape:window-x="0"
     inkscape:window-y="1"
     inkscape:window-maximized="1"
     units="px"
     showborder="true"
     inkscape:showpageshadow="false"
     borderlayer="false" />
  <metadata
     id="metadata5">
    <rdf:RDF>
      <cc:Work
         rdf:about="">
        <dc:format>image/svg+xml</dc:format>
        <dc:type
           rdf:resource="http://purl.org/dc/dcmitype/StillImage" />
        <dc:title></dc:title>
      </cc:Work>
    </rdf:RDF>
  </metadata>
  <g
     inkscape:label="Layer 1"
     inkscape:groupmode="layer"
     id="layer1"
     transform="translate(0,-191.16665)">
    <g
       aria-label="IG"
       style="font-style:normal;font-variant:normal;font-weight:bold;font-stretch:normal;font-size:90.31111145px;line-height:1.25;font-family:Optima;-inkscape-font-specification:'Optima Bold';letter-spacing:0px;word-spacing:0px;fill:#ffffff;fill-opacity:1;stroke:none;stroke-width:0.26458332"
       id="text31">
      <path
         d="m 10.155062,238.07763 q 0,-7.49583 -0.1806225,-13.27574 -0.1806223,-5.87022 -0.5418667,-11.74044 1.5352892,0.18062 3.3415112,0.36124 1.806222,0.0903 4.064,0.0903 2.257778,0 4.064,-0.0903 1.806222,-0.18062 3.341511,-0.36124 -0.361244,5.87022 -0.541867,11.74044 -0.180622,5.77991 -0.180622,13.27574 v 12.28231 q 0,7.49582 0.180622,13.36604 0.180623,5.77991 0.541867,11.3792 -1.535289,-0.18062 -3.341511,-0.18062 -1.806222,0 -4.064,0 -2.257778,0 -4.064,0 -1.806222,0 -3.3415112,0.18062 0.3612444,-5.59929 0.5418667,-11.3792 0.1806225,-5.87022 0.1806225,-13.36604 v -12.28231 z"
         style="font-style:normal;font-variant:normal;font-weight:bold;font-stretch:normal;font-size:90.31111145px;font-family:Optima;-inkscape-font-specification:'Optima Bold';fill:#ffffff;stroke-width:0.26458332"
         id="path3722" />
      <path
         d="m 91.523962,226.5178 q -2.889955,-4.064 -7.224889,-6.5024 -4.334933,-2.52871 -10.5664,-2.52871 -4.154311,0 -8.308622,1.80623 -4.064,1.71591 -7.3152,5.23804 -3.160889,3.52213 -5.147733,8.85049 -1.986845,5.23804 -1.986845,12.37262 0,5.41867 1.444978,10.02453 1.535289,4.60587 4.334933,8.03769 2.799645,3.34151 6.863645,5.23805 4.064,1.89653 9.302044,1.89653 1.174045,0 2.619023,-0.0903 1.535288,-0.18062 2.889955,-0.36124 1.444978,-0.18063 2.619022,-0.45156 1.174045,-0.36124 1.715911,-0.72249 0.180623,-1.08373 0.180623,-2.70933 0.09031,-1.6256 0.09031,-3.61245 0,-7.3152 -0.270934,-10.74702 -0.270933,-3.52213 -0.361244,-4.78649 0.903111,0.18062 2.348089,0.36125 1.535289,0.0903 4.334933,0.0903 3.2512,0 4.786489,-0.0903 1.6256,-0.18063 2.528711,-0.36125 -0.180622,0.72249 -0.361244,2.34809 -0.09031,1.6256 -0.180622,3.79307 -0.09031,2.07715 -0.180623,4.51555 0,2.34809 0,4.51556 v 2.98027 q 0,2.25777 0,4.24462 0.09031,1.89653 0.270934,2.70933 -5.960534,1.71591 -12.101689,2.70933 -6.050845,0.99343 -12.011378,0.99343 -7.766756,0 -14.359467,-1.98685 -6.5024,-2.07715 -11.288889,-5.96053 -4.696177,-3.97369 -7.405511,-9.48267 -2.619022,-5.59929 -2.619022,-12.55324 0,-8.57956 2.799644,-14.99165 2.889956,-6.5024 7.857067,-10.74702 5.057422,-4.33493 11.921067,-6.5024 6.863644,-2.16747 14.811022,-2.16747 6.863645,0 11.830756,1.44498 5.057422,1.35467 9.934222,3.97369 -0.722489,2.34809 -1.444978,4.60587 -0.632178,2.25778 -1.083733,4.60586 h -1.264356 z"
         style="font-style:normal;font-variant:normal;font-weight:bold;font-stretch:normal;font-size:90.31111145px;font-family:Optima;-inkscape-font-specification:'Optima Bold';fill:#ffffff;stroke-width:0.26458332"
         id="path3724" />
    </g>
  </g>
</svg>
